#!OML:ASF H:\Terrain\Patient Classification 1\PLAYGROUND\JustinFriday\JustinFriday.ASF
:FULLY-SPECIFIED
:DEGREES
2246
root 8.30942 8.83195 3.75996 299.583 -12.268 4.81915
lowerback 25.1951 0.78178 0.238531
upperback 9.16154 0.795655 -3.05945
thorax -3.81293 0.405297 -3.67944
lowerneck 11.2536 -4.9643 -5.79809
upperneck 19.1254 -8.13996 5.08703
head 4.40724 -4.34023 2.48218
rclavicle 1.90833e-014 -4.45278e-014
rhumerus 55.9383 -34.5963 -16.419
rradius 56.3197
rwrist -42.2885
rhand -4.52542 -31.2839
rfingers 7.12502
rthumb 21.2493 -420.139
lclavicle 1.90833e-014 -4.45278e-014
lhumerus 58.5085 45.1268 8.57546
lradius 73.3047
lwrist 1.88514
lhand 13.45 11.8209
lfingers 7.12502
lthumb 38.3907 37.5128
rfemur -13.5236 -15.891 7.37267
rtibia 136.897
rfoot -28.1062 -3.60676
rtoes -13.9833
lfemur -25.251 20.9967 15.4531
ltibia 97.7777
lfoot -11.7071 -29.3828
ltoes -13.449
2247
root 8.3075 8.89163 3.93153 299.994 -12.7995 4.82573
lowerback 24.766 0.556671 0.51332
upperback 8.89311 0.572351 -2.93402
thorax -3.9123 0.292005 -3.63232
lowerneck 12.1575 -4.68952 -6.74917
upperneck 18.5614 -7.88101 5.17708
head 4.12129 -4.28974 2.70229
rclavicle -3.19049e-014 -3.16068e-014
rhumerus 54.7962 -35.1212 -14.2695
rradius 57.1784
rwrist -44.7852
rhand -4.35385 -31.7279
rfingers 7.12502
rthumb 21.4141 -420.564
lclavicle -3.19049e-014 -3.16068e-014
lhumerus 57.1546 46.2808 9.72616
lradius 77.3396
lwrist 0.00535796
lhand 12.1747 11.7697
lfingers 7.12502
lthumb 37.186 37.7858
rfemur -13.143 -14.8643 7.5494
rtibia 137.025
rfoot -28.2242 -2.16713
rtoes -11.2409
lfemur -24.8554 21.0595 16.179
ltibia 98.2891
lfoot -12.9011 -29.333
ltoes -13.833
2248
root 8.30728 8.95327 4.10074 300.112 -13.0176 4.76276
lowerback 24.7502 0.25547 0.488359
upperback 8.57952 0.180504 -2.65235
thorax -4.27797 0.0846424 -3.20583
lowerneck 13.2969 -4.2985 -8.15071
upperneck 17.9935 -7.53974 5.16011
head 3.80979 -4.23035 2.96696
rclavicle 1.47598e-014 -2.40529e-014
rhumerus 53.8621 -35.3668 -11.825
rradius 58.0351
rwrist -47.5013
rhand -4.542 -32.1834
rfingers 7.12502
rthumb 21.2334 -421.04
lclavicle 1.47598e-014 -2.40529e-014
lhumerus 54.9967 47.3036 10.8044
lradius 81.6933
lwrist -1.81833
lhand 10.4198 11.5769
lfingers 7.12502
lthumb 35.5244 38.0088
rfemur -12.5574 -14.2269 7.37227
rtibia 136.998
rfoot -28.0762 -1.57703
rtoes -10.7433
lfemur -24.1354 20.7475 16.6134
ltibia 98.714
lfoot -14.0262 -29.7514
ltoes -13.5432
2249
root 8.29856 9.02289 4.25598 300.393 -13.9979 4.27384
lowerback 24.9483 -0.20882 1.12033
upperback 8.01614 -0.241478 -1.9914
thorax -5.01886 -0.138972 -2.73623
lowerneck 14.6996 -3.62254 -10.2767
upperneck 17.5123 -7.0129 5.42674
head 3.50833 -4.11689 3.44102
rclavicle -7.95139e-015 1.90833e-014
rhumerus 53.3424 -35.2689 -9.51342
rradius 58.9275
rwrist -50.1828
rhand -4.5443 -32.7046
rfingers 7.12502
rthumb 21.2312 -421.562
lclavicle -7.95139e-015 1.90833e-014
lhumerus 51.9874 48.1857 11.4715
lradius 86.1616
lwrist -3.24727
lhand 7.90703 10.8364
lfingers 7.12502
lthumb 33.1386 37.8072
rfemur -12.2408 -13.5027 9.41317
rtibia 136.563
rfoot -27.3483 -2.29604
rtoes -12.338
lfemur -23.4275 20.7091 18.2372
ltibia 99.1522
lfoot -15.9159 -30.2806
ltoes -15.5816
2250
root 8.28273 9.09945 4.39861 300.716 -14.8083 4.03428
lowerback 24.9516 -0.652726 1.2274
upperback 7.52417 -0.751308 -1.26926
thorax -5.58218 -0.406031 -1.86348
lowerneck 16.0803 -2.6807 -12.9594
upperneck 16.9051 -6.29509 5.85675
head 3.17363 -3.92865 4.04844
rclavicle -2.10712e-014 -1.59028e-015
rhumerus 54.5353 -34.5428 -9.81486
rradius 59.6637
rwrist -50.6118
rhand -4.42748 -32.5167
rfingers 7.12502
rthumb 21.3434 -421.361
lclavicle -2.10712e-014 -1.59028e-015
lhumerus 48.4185 49.4979 11.7355
lradius 90.3965
lwrist -4.54869
lhand 4.68749 9.5234
lfingers 7.12502
lthumb 30.0718 37.0976
rfemur -12.0211 -12.7364 11.3617
rtibia 135.763
rfoot -26.0919 -3.3883
rtoes -14.3992
lfemur -22.7367 20.8745 19.5864
ltibia 99.5212
lfoot -17.4112 -29.8028
ltoes -14.3201
2251
root 8.28001 9.14689 4.5496 300.949 -14.961 4.23625
lowerback 24.5808 -0.0725372 2.162
upperback 8.41038 0.163903 -2.32978
thorax -4.36926 0.0875086 -3.81213
lowerneck 14.315 -4.43763 -9.17662
upperneck 16.58 -7.91036 5.5105
head 3.30596 -4.47145 3.28085
rclavicle 6.59717e-015 -2.09718e-014
rhumerus 49.6056 -37.5731 -7.20186
rradius 60.4009
rwrist -51.9114
rhand -4.41124 -32.4514
rfingers 7.12502
rthumb 21.359 -421.294
lclavicle 6.59717e-015 -2.09718e-014
lhumerus 54.2255 51.6695 18.2667
lradius 94.4052
lwrist -6.24824
lhand 0.542941 7.76103
lfingers 7.12502
lthumb 26.1103 35.986
rfemur -11.7177 -11.7578 10.6575
rtibia 136.049
rfoot -26.4739 -0.744866
rtoes -10.3502
lfemur -22.2987 21.0969 19.9632
ltibia 100.029
lfoot -18.2294 -29.4381
ltoes -14.3427
